<svg id="Layer_1" data-name="Layer 1" xmlns="http://www.w3.org/2000/svg" width="360" height="100" viewBox="0 0 360 100"><defs><style>.cls-1{fill:#fff;}.cls-2{fill:#B00734;}</style></defs><path class="cls-1" d="M9.0569,62.2073Q5,56.9863,5,47.1449V25.3589q0-10.066,4.0192-15.2127Q13.0374,5.0015,22.8044,5q9.315,0,13.1846,4.545t3.8689,13.0342v5.1085H27.838V22.0535a28.9493,28.9493,0,0,0-.2629-4.3575,4.8546,4.8546,0,0,0-1.3521-2.742A4.5566,4.5566,0,0,0,22.88,13.8648q-3.3808,0-4.3575,2.1785a16.2329,16.2329,0,0,0-.9766,6.3857V50.0748A14.0014,14.0014,0,0,0,18.6726,56.46Q19.8,58.5647,22.88,58.5636q3.1554,0,4.0564-2.1408a17.1339,17.1339,0,0,0,.9018-6.348V44.14h12.02v5.0331q0,8.7158-3.8312,13.4851-3.8317,4.7709-13.2223,4.77Q13.1135,67.4284,9.0569,62.2073Z"/><path class="cls-1" d="M50.675,62.3576q-4.132-5.0712-4.1318-14.9122V24.7577q0-9.8406,4.1318-14.7995T64.4979,5q9.6152,0,13.7857,4.9959,4.1688,4.9971,4.169,14.7618V47.52q0,9.7666-4.169,14.8373T64.4979,67.4284Q54.807,67.4284,50.675,62.3576Zm18.0678-5.9348a13.1922,13.1922,0,0,0,1.0892-5.8976V21.7529a12.7,12.7,0,0,0-1.0892-5.8222q-1.0905-2.0656-4.2449-2.0659t-4.2444,2.0659a12.6808,12.6808,0,0,0-1.0892,5.8222V50.5252A13.5341,13.5341,0,0,0,60.2158,56.46q1.0515,2.1046,4.2821,2.1036Q67.6533,58.5636,68.7428,56.4228Z"/><path class="cls-1" d="M87.3354,5.7515H98.0781l7.212,42.0694,6.7612-42.0694h11.1935L111.6758,66.602H98.9044Z"/><path class="cls-1" d="M129.5551,5.7515h12.32V66.602h-12.32Z"/><path class="cls-1" d="M151.1143,5.7515H165.99q7.662,0,11.9817,1.9905a11.9633,11.9633,0,0,1,6.1606,6.1228,27.3183,27.3183,0,0,1,1.84,10.9678v22.162A29.1752,29.1752,0,0,1,184.17,58.2258a12.0681,12.0681,0,0,1-6.0852,6.31q-4.2825,2.0671-11.7952,2.0659H151.1143ZM166.14,57.9629a8.8381,8.8381,0,0,0,4.7707-1.0143,4.512,4.512,0,0,0,1.9533-2.9677,29.15,29.15,0,0,0,.4127-5.6342V23.18a20.962,20.962,0,0,0-.4881-5.221,4.1956,4.1956,0,0,0-1.991-2.6294,9.8854,9.8854,0,0,0-4.733-.8636h-2.6288v43.497Z"/><path class="cls-2" d="M197.3161,62.2073q-4.0565-5.221-4.0564-15.0624V25.3589q0-10.066,4.0187-15.2127Q201.2966,5.0015,211.0636,5q9.3141,0,13.1841,4.545,3.8684,4.5462,3.8689,13.0342v5.1085H216.0972V22.0535a28.883,28.883,0,0,0-.2629-4.3575,4.8546,4.8546,0,0,0-1.3521-2.742,4.5566,4.5566,0,0,0-3.3432-1.0892q-3.3809,0-4.3569,2.1785a16.211,16.211,0,0,0-.9772,6.3857V50.0748a14.0014,14.0014,0,0,0,1.1269,6.3852q1.1265,2.1046,4.2072,2.1036,3.1546,0,4.0564-2.1408a17.1339,17.1339,0,0,0,.9018-6.348V44.14h12.0194v5.0331q0,8.7158-3.8312,13.4851-3.83,4.7709-13.2218,4.77Q201.3736,67.4284,197.3161,62.2073Z"/><path class="cls-2" d="M235.7036,5.7515H251.48q9.8413,0,14.8,3.606t4.9582,12.47a23.4425,23.4425,0,0,1-1.6527,9.5785,11.0365,11.0365,0,0,1-5.86,5.5216l8.4133,29.6741H259.4429l-6.9115-27.5705h-4.5068V66.602h-12.321ZM251.705,31.6692q4.3575,0,6.1228-2.1413t1.7659-6.7235q0-4.5072-1.5773-6.6108-1.5789-2.1024-5.71-2.1036h-4.2816V31.6692Z"/><path class="cls-2" d="M288.2911,5.7515h13.7475L313.7574,66.602H302.3392L300.0853,53.23H290.47L288.14,66.602H276.4958ZM298.8829,45.567l-3.68-24.49-3.606,24.49Z"/><path class="cls-2" d="M319.9169,5.7515h19.3079Q355,5.7515,355,23.2553q0,9.24-4.5068,13.1092T337.947,40.2334h-5.7091V66.602h-12.321ZM336.67,31.5189q3.98,0,5.3331-1.8779t1.3532-6.6109a20.4674,20.4674,0,0,0-.4514-4.8455,4.5222,4.5222,0,0,0-1.9156-2.7425,7.9985,7.9985,0,0,0-4.3947-.9762h-4.357v17.053Z"/><path class="cls-1" d="M7.9925,78.2433H5V75.3227h9.9106v2.9206H11.9664v16.47H7.9925Z"/><path class="cls-1" d="M16.7059,75.3227h3.95V83.27H24.079V75.3227h3.95v19.39h-3.95V86.1191H20.6557v8.5938h-3.95Z"/><path class="cls-1" d="M30.9966,75.3227h8.45v2.729H34.9227v5.1468H38.418v2.7532H34.9227v6.08h4.5722v2.6812H30.9966Z"/><path class="cls-2" d="M48.4959,93.3127a7.694,7.694,0,0,1-1.2926-4.8V81.5706a7.7721,7.7721,0,0,1,1.2806-4.8472q1.2807-1.64,4.3926-1.64,2.9687,0,4.2017,1.4485a6.2366,6.2366,0,0,1,1.2328,4.1533v1.6275H54.48V80.5173a9.24,9.24,0,0,0-.0835-1.3882,1.547,1.547,0,0,0-.4309-.8738,1.4509,1.4509,0,0,0-1.0653-.3474,1.3571,1.3571,0,0,0-1.3887.6943,5.1778,5.1778,0,0,0-.3112,2.0347v8.81a4.461,4.461,0,0,0,.3595,2.0347,1.38,1.38,0,0,0,1.34.67,1.2444,1.2444,0,0,0,1.2926-.6822,5.4605,5.4605,0,0,0,.2871-2.0227V87.5555H58.311v1.6039A6.7,6.7,0,0,1,57.09,93.456q-1.221,1.5208-4.2132,1.52Q49.789,94.9764,48.4959,93.3127Z"/><path class="cls-1" d="M61.7579,93.3605a7.3792,7.3792,0,0,1-1.3167-4.7517v-7.23a7.2242,7.2242,0,0,1,1.3167-4.7154q1.3162-1.58,4.4048-1.58,3.0639,0,4.3927,1.5917a7.1928,7.1928,0,0,1,1.3283,4.7039v7.2535a7.293,7.293,0,0,1-1.3283,4.728q-1.3289,1.6153-4.3927,1.6159Q63.0744,94.9764,61.7579,93.3605Zm5.7572-1.8914A4.2025,4.2025,0,0,0,67.862,89.59V80.4218a4.05,4.05,0,0,0-.3469-1.8553,1.7185,1.7185,0,0,0-2.7054,0,4.0434,4.0434,0,0,0-.3469,1.8553V89.59a4.3027,4.3027,0,0,0,.3354,1.8909,1.7026,1.7026,0,0,0,2.7169-.012Z"/><path class="cls-1" d="M74.5161,75.3227h2.7532l4.3087,10.078V75.3227h3.28v19.39H82.2L77.8917,83.9884V94.7129H74.5161Z"/><path class="cls-1" d="M86.844,75.3227h3.4233l2.2982,13.4058L94.72,75.3227H98.287L94.6,94.7129H90.5308Z"/><path class="cls-1" d="M100.25,75.3227H108.7v2.729h-4.5244v5.1468h3.4952v2.7532h-3.4952v6.08h4.5722v2.6812H100.25Z"/><path class="cls-1" d="M110.7586,75.3227h5.0272a7.9949,7.9949,0,0,1,4.716,1.1493q1.58,1.1486,1.58,3.9734a7.4618,7.4618,0,0,1-.5263,3.0523,3.5171,3.5171,0,0,1-1.8673,1.76l2.6812,9.4555h-4.0457l-2.2022-8.7853h-1.4364v8.7853h-3.9261Zm5.0991,8.259a2.4076,2.4076,0,0,0,1.9512-.6823,3.3433,3.3433,0,0,0,.5621-2.1428,3.5338,3.5338,0,0,0-.5022-2.1066,2.1472,2.1472,0,0,0-1.82-.67h-1.3645v5.6019Z"/><path class="cls-1" d="M125.6245,93.5043a7.0336,7.0336,0,0,1-1.4606-4.5606l3.3992-.5747a6.3774,6.3774,0,0,0,.5148,2.7175,1.5008,1.5008,0,0,0,1.4.8733,1.1422,1.1422,0,0,0,1.0056-.4425,1.9352,1.9352,0,0,0,.3112-1.1372,3.5361,3.5361,0,0,0-.5148-1.9508,8.683,8.683,0,0,0-1.6159-1.76l-2.0106-1.7477a7.6974,7.6974,0,0,1-1.8311-2.1543,5.6094,5.6094,0,0,1-.6345-2.7532,4.6983,4.6983,0,0,1,1.4-3.6506,5.5165,5.5165,0,0,1,3.8663-1.2805q2.6325,0,3.6627,1.52A7.6154,7.6154,0,0,1,134.29,80.47l-3.4234.5028a6.9345,6.9345,0,0,0-.3474-2.262,1.1569,1.1569,0,0,0-1.1845-.7305,1.1751,1.1751,0,0,0-1.0056.4907,1.9154,1.9154,0,0,0-.3589,1.1614,2.9462,2.9462,0,0,0,.4188,1.6159,7.0177,7.0177,0,0,0,1.3283,1.448l1.9633,1.7235a10.5566,10.5566,0,0,1,2.1785,2.5736,6.1783,6.1783,0,0,1,.79,3.1715,4.9064,4.9064,0,0,1-.6224,2.4776,4.4316,4.4316,0,0,1-1.76,1.712,5.3734,5.3734,0,0,1-2.6209.6224A5.17,5.17,0,0,1,125.6245,93.5043Z"/><path class="cls-1" d="M136.78,75.3227h3.9256v19.39H136.78Z"/><path class="cls-1" d="M144.6788,93.3605a7.3792,7.3792,0,0,1-1.3167-4.7517v-7.23a7.2242,7.2242,0,0,1,1.3167-4.7154q1.3162-1.58,4.4048-1.58,3.0638,0,4.3926,1.5917a7.1922,7.1922,0,0,1,1.3283,4.7039v7.2535a7.2925,7.2925,0,0,1-1.3283,4.728q-1.3287,1.6153-4.3926,1.6159Q145.9953,94.9764,144.6788,93.3605Zm5.7572-1.8914a4.2025,4.2025,0,0,0,.3469-1.8789V80.4218a4.05,4.05,0,0,0-.3469-1.8553,1.7185,1.7185,0,0,0-2.7054,0,4.0434,4.0434,0,0,0-.3469,1.8553V89.59a4.3027,4.3027,0,0,0,.3354,1.8909,1.7026,1.7026,0,0,0,2.7169-.012Z"/><path class="cls-1" d="M157.4375,75.3227h2.7532l4.3087,10.078V75.3227h3.28v19.39h-2.6572l-4.3087-10.7245V94.7129h-3.3756Z"/><path class="cls-2" d="M176.6834,75.3227h5.0272a7.9947,7.9947,0,0,1,4.716,1.1493q1.58,1.1486,1.58,3.9734a7.4617,7.4617,0,0,1-.5264,3.0523,3.5168,3.5168,0,0,1-1.8673,1.76l2.6813,9.4555h-4.0458l-2.2021-8.7853H180.61v8.7853h-3.9262Zm5.0991,8.259a2.4078,2.4078,0,0,0,1.9513-.6823,3.3439,3.3439,0,0,0,.5621-2.1428,3.5338,3.5338,0,0,0-.5023-2.1066,2.1469,2.1469,0,0,0-1.82-.67H180.61v5.6019Z"/><path class="cls-1" d="M193.4407,75.3227h4.3806l3.7351,19.39h-3.639l-.7185-4.2609H194.135l-.7421,4.2609h-3.71ZM196.8163,88.01l-1.173-7.8039L194.494,88.01Z"/><path class="cls-1" d="M204.3568,78.2433h-2.9925V75.3227h9.9106v2.9206H208.33v16.47h-3.9728Z"/><path class="cls-1" d="M213.0215,75.3227h8.4505v2.729h-4.5249v5.1468h3.4952v2.7532h-3.4952v6.08H221.52v2.6812h-8.4988Z"/><path class="cls-2" d="M232.3167,75.3227h4.38l3.7346,19.39h-3.6391l-.7179-4.2609h-3.0639l-.7421,4.2609h-3.71ZM235.6913,88.01l-1.1725-7.8039L233.37,88.01Z"/><path class="cls-1" d="M242.4424,75.3227h3.9256v19.39h-3.9256Z"/><path class="cls-1" d="M249.3122,75.3227h4.74a9.3323,9.3323,0,0,1,3.8186.6345,3.8126,3.8126,0,0,1,1.9628,1.9507,8.7173,8.7173,0,0,1,.5857,3.4953V88.465a9.2905,9.2905,0,0,1-.5742,3.5787,3.8472,3.8472,0,0,1-1.9386,2.0111,8.8019,8.8019,0,0,1-3.7587.6581h-4.8357ZM254.1006,91.96a2.82,2.82,0,0,0,1.52-.3228,1.4416,1.4416,0,0,0,.6224-.9457,9.3136,9.3136,0,0,0,.1312-1.7954V80.8768a6.668,6.668,0,0,0-.1553-1.6642,1.3358,1.3358,0,0,0-.634-.8376,3.1545,3.1545,0,0,0-1.5083-.2755h-.8387V91.96Z"/><path class="cls-2" d="M269.0137,75.3227h6.1529q5.0256,0,5.0266,5.5777,0,2.9442-1.4358,4.1775a5.9482,5.9482,0,0,1-3.9981,1.2328h-1.82v8.4022h-3.9256Zm5.3384,8.2112a1.9822,1.9822,0,0,0,1.6993-.5988,3.7661,3.7661,0,0,0,.4314-2.1066,6.54,6.54,0,0,0-.1438-1.544,1.44,1.44,0,0,0-.6109-.8738,2.55,2.55,0,0,0-1.4-.3112h-1.3886v5.4344Z"/><path class="cls-1" d="M283.9278,75.3227h4.38l3.7346,19.39h-3.6391l-.7179-4.2609h-3.0639l-.7421,4.2609h-3.71ZM287.3024,88.01,286.13,80.2061,284.9806,88.01Z"/><path class="cls-1" d="M294.7473,93.3127a7.694,7.694,0,0,1-1.292-4.8V81.5706a7.7689,7.7689,0,0,1,1.28-4.8472q1.28-1.64,4.3927-1.64,2.9678,0,4.2006,1.4485a6.234,6.234,0,0,1,1.2333,4.1533v1.6275h-3.83V80.5173a9.2165,9.2165,0,0,0-.084-1.3882,1.5444,1.5444,0,0,0-.4314-.8738,1.4476,1.4476,0,0,0-1.0643-.3474,1.3556,1.3556,0,0,0-1.3886.6943,5.1651,5.1651,0,0,0-.3118,2.0347v8.81a4.4619,4.4619,0,0,0,.359,2.0347,1.3812,1.3812,0,0,0,1.3414.67,1.2436,1.2436,0,0,0,1.2921-.6822,5.4462,5.4462,0,0,0,.2876-2.0227V87.5555h3.83v1.6039a6.7039,6.7039,0,0,1-1.2207,4.2966q-1.2217,1.5208-4.2132,1.52Q296.0394,94.9764,294.7473,93.3127Z"/><path class="cls-1" d="M306.98,75.3227h3.9256V83.51l3.5194-8.1871h3.83l-3.638,8.7134,3.9256,10.6768h-3.998l-2.9925-8.6657-.6465,1.0533v7.6124H306.98Z"/><path class="cls-1" d="M322.9948,75.3227h4.38l3.7346,19.39H327.47l-.7179-4.2609h-3.0639l-.742,4.2609h-3.71ZM326.3694,88.01l-1.1724-7.8039L324.0476,88.01Z"/><path class="cls-1" d="M333.73,93.2644a8.6308,8.6308,0,0,1-1.2081-4.9668V81.81a8.2867,8.2867,0,0,1,1.2805-5.0151q1.28-1.7106,4.3927-1.7114,2.9915,0,4.26,1.46a6.2387,6.2387,0,0,1,1.269,4.2127v1.1252h-3.83V80.5173a4.89,4.89,0,0,0-.2992-1.9749q-.2991-.6338-1.353-.6345a1.3441,1.3441,0,0,0-1.3876.7185,5.4314,5.4314,0,0,0-.3117,2.0824v8.618a4.6071,4.6071,0,0,0,.3831,2.0945,1.47,1.47,0,0,0,1.4359.73,1.5058,1.5058,0,0,0,1.4485-.7778,4.6215,4.6215,0,0,0,.4188-2.1664V87.1483h-1.89V84.7546h5.457v9.9583h-2.5852l-.2635-1.7235A3.1937,3.1937,0,0,1,337.7641,95,4.5643,4.5643,0,0,1,333.73,93.2644Z"/><path class="cls-1" d="M346.5012,75.3227h8.4505v2.729h-4.5249v5.1468h3.4952v2.7532h-3.4952v6.08H355v2.6812h-8.4988Z"/></svg>